<svg width="100" height="100" viewBox="0 0 100 100" fill="none" xmlns="http://www.w3.org/2000/svg">
<path fill-rule="evenodd" clip-rule="evenodd" d="M50 23.9583C33.3164 23.9583 19.7917 37.4831 19.7917 54.1667C19.7917 70.8503 33.3164 84.375 50 84.375C66.6836 84.375 80.2083 70.8503 80.2083 54.1667C80.2083 37.4831 66.6836 23.9583 50 23.9583ZM13.5417 54.1667C13.5417 34.0313 29.8646 17.7083 50 17.7083C70.1354 17.7083 86.4583 34.0313 86.4583 54.1667C86.4583 74.3021 70.1354 90.625 50 90.625C29.8646 90.625 13.5417 74.3021 13.5417 54.1667Z" fill="#090928"/>
<path fill-rule="evenodd" clip-rule="evenodd" d="M50 30.2083C51.7259 30.2083 53.125 31.6075 53.125 33.3333V52.4347L64.1563 59.3292C65.6198 60.2439 66.0647 62.1719 65.15 63.6354C64.2353 65.099 62.3073 65.5439 60.8438 64.6292L48.3438 56.8167C47.4301 56.2456 46.875 55.2441 46.875 54.1667V33.3333C46.875 31.6075 48.2741 30.2083 50 30.2083Z" fill="#090928"/>
<path fill-rule="evenodd" clip-rule="evenodd" d="M27.2097 14.457C28.4301 15.6774 28.4301 17.656 27.2097 18.8764L16.793 29.293C15.5727 30.5134 13.594 30.5134 12.3736 29.293C11.1532 28.0727 11.1532 26.094 12.3736 24.8736L22.7903 14.457C24.0107 13.2366 25.9893 13.2366 27.2097 14.457Z" fill="#090928"/>
<path fill-rule="evenodd" clip-rule="evenodd" d="M72.7903 14.457C71.5699 15.6774 71.5699 17.656 72.7903 18.8764L83.207 29.293C84.4274 30.5134 86.406 30.5134 87.6264 29.293C88.8468 28.0727 88.8468 26.094 87.6264 24.8736L77.2097 14.457C75.9893 13.2366 74.0107 13.2366 72.7903 14.457Z" fill="#090928"/>
</svg>
