<svg width="70" height="70" viewBox="0 0 70 70" fill="none" xmlns="http://www.w3.org/2000/svg">
<path fill-rule="evenodd" clip-rule="evenodd" d="M35 16.7708C23.3215 16.7708 13.8542 26.2381 13.8542 37.9167C13.8542 49.5952 23.3215 59.0625 35 59.0625C46.6785 59.0625 56.1458 49.5952 56.1458 37.9167C56.1458 26.2381 46.6785 16.7708 35 16.7708ZM9.47917 37.9167C9.47917 23.8219 20.9052 12.3958 35 12.3958C49.0948 12.3958 60.5208 23.8219 60.5208 37.9167C60.5208 52.0114 49.0948 63.4375 35 63.4375C20.9052 63.4375 9.47917 52.0114 9.47917 37.9167Z" fill="#003366"/>
<path fill-rule="evenodd" clip-rule="evenodd" d="M35 21.1458C36.2081 21.1458 37.1875 22.1252 37.1875 23.3333V36.7043L44.9094 41.5304C45.9339 42.1707 46.2453 43.5203 45.605 44.5448C44.9647 45.5693 43.6151 45.8807 42.5906 45.2404L33.8406 39.7717C33.201 39.3719 32.8125 38.6709 32.8125 37.9167V23.3333C32.8125 22.1252 33.7919 21.1458 35 21.1458Z" fill="#003366"/>
<path fill-rule="evenodd" clip-rule="evenodd" d="M19.0468 10.1199C19.9011 10.9741 19.9011 12.3592 19.0468 13.2135L11.7551 20.5051C10.9009 21.3594 9.51581 21.3594 8.66154 20.5051C7.80727 19.6509 7.80727 18.2658 8.66154 17.4115L15.9532 10.1199C16.8075 9.2656 18.1925 9.2656 19.0468 10.1199Z" fill="#003366"/>
<path fill-rule="evenodd" clip-rule="evenodd" d="M50.9532 10.1199C50.0989 10.9741 50.0989 12.3592 50.9532 13.2135L58.2449 20.5051C59.0991 21.3594 60.4842 21.3594 61.3385 20.5051C62.1927 19.6509 62.1927 18.2658 61.3385 17.4115L54.0468 10.1199C53.1925 9.2656 51.8075 9.2656 50.9532 10.1199Z" fill="#003366"/>
</svg>
