<svg xmlns="http://www.w3.org/2000/svg" viewBox="0 0 55.7 19.63"><g id="Camada_2" data-name="Camada 2"><g id="Camada_3" data-name="Camada 3"><rect x="37.31" y="9.32" width="18.38" height="1"/><rect y="9.32" width="18.46" height="1"/><path d="M27.85,1A8.82,8.82,0,1,1,19,9.82,8.82,8.82,0,0,1,27.85,1m0-1a9.82,9.82,0,1,0,9.81,9.82A9.82,9.82,0,0,0,27.85,0Z"/><path d="M24.48,13.28a.26.26,0,0,1-.17-.07.23.23,0,0,1-.07-.17.57.57,0,0,1,0-.13l3-7.77A.55.55,0,0,1,27.36,5a.36.36,0,0,1,.25-.07h.81a.38.38,0,0,1,.26.07.53.53,0,0,1,.13.19l3,7.77a.31.31,0,0,1,0,.13.25.25,0,0,1-.08.17.24.24,0,0,1-.16.07h-.62a.33.33,0,0,1-.21-.07.8.8,0,0,1-.09-.14L30,11.37H26.05l-.66,1.7a.33.33,0,0,1-.09.14.31.31,0,0,1-.21.07Zm1.92-2.94h3.24L28,6.08Z"/></g></g></svg>