<svg width="70" height="70" viewBox="0 0 70 70" fill="none" xmlns="http://www.w3.org/2000/svg">
<path d="M20.5489 15.3401C17.211 15.7132 14.5391 18.3477 14.1529 21.6496C13.1155 30.5197 13.1155 39.4803 14.1529 48.3504C14.5391 51.6524 17.211 54.2868 20.5489 54.6599C29.2313 55.6303 38.2136 55.6303 46.896 54.6599C50.2339 54.2868 52.9057 51.6524 53.2919 48.3504C54.0373 41.977 54.2471 35.5568 53.9214 29.1571C53.9129 28.9919 53.9747 28.8307 54.0917 28.7137L57.1214 25.6839C57.4721 25.3332 58.0713 25.5525 58.1086 26.047C58.6803 33.6447 58.5233 41.2835 57.6373 48.8586C57.0106 54.2164 52.7089 58.4124 47.3819 59.0078C38.3765 60.0143 29.0683 60.0143 20.0629 59.0078C14.736 58.4124 10.4342 54.2164 9.80757 48.8586C8.73065 39.6509 8.73065 30.3491 9.80757 21.1414C10.4342 15.7836 14.736 11.5876 20.0629 10.9922C29.0683 9.98571 38.3765 9.98571 47.3819 10.9922C49.2581 11.2019 51.0071 11.8582 52.5131 12.8547C52.8095 13.0507 52.8388 13.4673 52.5876 13.7186L50.2458 16.0603C50.0543 16.2519 49.7572 16.2841 49.5184 16.1562C48.721 15.7289 47.8348 15.4451 46.896 15.3401C38.2136 14.3697 29.2313 14.3697 20.5489 15.3401Z" fill="#72C885"/>
<path d="M60.0608 17.5885C60.9151 16.7342 60.9151 15.3491 60.0608 14.4949C59.2066 13.6406 57.8215 13.6406 56.9673 14.4949L32.2641 39.1981L25.0608 31.9949C24.2066 31.1406 22.8215 31.1406 21.9673 31.9949C21.113 32.8491 21.113 34.2342 21.9673 35.0885L30.7173 43.8385C31.5715 44.6927 32.9566 44.6927 33.8109 43.8385L60.0608 17.5885Z" fill="#72C885"/>
</svg>
