<svg width="64" height="24" viewBox="0 0 64 24" fill="none" xmlns="http://www.w3.org/2000/svg">
<g clip-path="url(#clip0_932_233)">
<path d="M46.18 5.45001H26.94V17.73H46.18V5.45001Z" fill="black"/>
<path d="M64 10.78H46.18V12.39H64V10.78Z" fill="black"/>
<path d="M20 11.59C20 7.59 22.13 3.33 26.81 3.33H27.62V0H26V1.75C24.9031 1.83832 23.8382 2.16289 22.8785 2.70143C21.9188 3.23998 21.0869 3.97975 20.44 4.87C19.224 6.60928 18.5301 8.65971 18.44 10.78H0V12.4H18.44C18.72 16.78 21.31 21 26.03 21.4V23.15H27.64V19.85H26.83C22.15 19.85 20 15.57 20 11.59Z" fill="black"/>
</g>
<defs>
<clipPath id="clip0_932_233">
<rect width="64" height="23.18" fill="white"/>
</clipPath>
</defs>
</svg>
