<svg width="70" height="70" viewBox="0 0 70 70" fill="none" xmlns="http://www.w3.org/2000/svg">
<path fill-rule="evenodd" clip-rule="evenodd" d="M59.3871 54.1902C58.2041 55.3293 56.6354 56.0619 54.907 56.1855L50.1299 56.5273C40.0562 57.248 29.9438 57.248 19.8701 56.5273L15.4543 56.2114C11.9658 55.9618 9.08853 53.383 8.45993 49.9426C7.18633 42.972 6.96829 35.8496 7.81313 28.8142L8.60788 22.1959C9.07952 18.2683 12.4115 15.3125 16.3674 15.3125H23.0511C26.3112 15.3125 29.0274 17.6413 29.6268 20.7262H53.8773C57.6875 20.7262 60.9329 23.4947 61.5335 27.2573L61.7204 28.4281C61.7596 28.6741 61.7975 28.9203 61.8339 29.1667H62.8139C67.1084 29.1667 70.0609 33.4828 68.5044 37.4853L64.8602 46.8561C63.7286 49.766 61.8301 52.2962 59.3871 54.1902ZM57.2132 27.9469L57.4001 29.1177C57.4027 29.134 57.4053 29.1503 57.4079 29.1667H30.2471C26.9346 29.1667 23.9629 31.2029 22.7671 34.292L15.9659 51.8618L15.7665 51.8475C14.2688 51.7404 13.0336 50.6333 12.7637 49.1562C11.5689 42.6172 11.3644 35.9357 12.1569 29.3358L12.9517 22.7176C13.1593 20.9886 14.626 19.6875 16.3674 19.6875H23.0511C24.3346 19.6875 25.375 20.7279 25.375 22.0114C25.375 23.7178 26.7583 25.1012 28.4648 25.1012H53.8773C55.5374 25.1012 56.9515 26.3075 57.2132 27.9469ZM20.5309 52.1881C30.2814 52.8692 40.068 52.861 49.8177 52.1635L54.5948 51.8217L55.1623 51.7686L55.1583 51.7615C57.7266 50.3124 59.7139 48.0188 60.7827 45.2704L64.4269 35.8996C64.8681 34.7651 64.0312 33.5417 62.8139 33.5417H30.2471C28.7414 33.5417 27.3906 34.4672 26.8471 35.8714L20.5309 52.1881Z" fill="#003366"/>
</svg>
