<svg width="100" height="100" viewBox="0 0 100 100" fill="none" xmlns="http://www.w3.org/2000/svg">
<path fill-rule="evenodd" clip-rule="evenodd" d="M84.8387 77.4146C83.1487 79.0418 80.9078 80.0884 78.4386 80.2651L71.6141 80.7533C57.2231 81.7829 42.7769 81.7829 28.3859 80.7533L22.0775 80.302C17.0941 79.9454 12.9836 76.2614 12.0856 71.3466C10.2662 61.3886 9.95471 51.2137 11.1616 41.1631L12.297 31.7085C12.9708 26.0976 17.7308 21.875 23.382 21.875H32.9301C37.5875 21.875 41.4677 25.2019 42.3241 29.6088L76.9675 29.6088C82.4107 29.6088 87.0471 33.5639 87.905 38.939L88.172 40.6116C88.2281 40.9631 88.2821 41.3148 88.3341 41.6667H89.7341C95.8692 41.6667 100.087 47.8326 97.8635 53.5505L92.6575 66.9373C91.0409 71.0943 88.3288 74.7089 84.8387 77.4146ZM81.7331 39.9241L82.0001 41.5967C82.0038 41.62 82.0075 41.6434 82.0112 41.6667H43.2101C38.478 41.6667 34.2327 44.5756 32.5244 48.9886L22.8084 74.0883L22.5235 74.0679C20.384 73.9148 18.6194 72.3332 18.2338 70.2232C16.527 60.8817 16.2348 51.3367 17.367 41.9083L18.5024 32.4537C18.799 29.9838 20.8943 28.125 23.382 28.125H32.9301C34.7637 28.125 36.25 29.6113 36.25 31.4449C36.25 33.8826 38.2262 35.8588 40.664 35.8588H76.9675C79.3392 35.8588 81.3593 37.5821 81.7331 39.9241ZM29.3299 74.5544C43.2592 75.5274 57.2401 75.5157 71.1681 74.5192L77.9926 74.031L78.8034 73.9552L78.7976 73.945C82.4665 71.8748 85.3056 68.5983 86.8324 64.672L92.0384 51.2852C92.6687 49.6644 91.4731 47.9167 89.7341 47.9167H43.2101C41.0592 47.9167 39.1295 49.2389 38.353 51.2448L29.3299 74.5544Z" fill="#090928"/>
</svg>
