<svg width="162" height="43" viewBox="0 0 162 43" fill="none" xmlns="http://www.w3.org/2000/svg">
<path d="M142 0H20C8.95431 0 0 8.9543 0 20V23C0 34.0457 8.9543 43 20 43H142C153.046 43 162 34.0457 162 23V20C162 8.95431 153.046 0 142 0Z" fill="#3DA6C7"/>
<path d="M68.6445 21.6045H64.4678V26H63.1553V16.0469H69.3213V17.127H64.4678V20.5312H68.6445V21.6045ZM75.0293 26C74.9564 25.8542 74.8971 25.5944 74.8516 25.2207C74.2637 25.8314 73.5618 26.1367 72.7461 26.1367C72.0169 26.1367 71.4176 25.9316 70.9482 25.5215C70.4834 25.1068 70.251 24.5827 70.251 23.9492C70.251 23.179 70.5426 22.582 71.126 22.1582C71.7139 21.7298 72.5387 21.5156 73.6006 21.5156H74.8311V20.9346C74.8311 20.4925 74.6989 20.1416 74.4346 19.8818C74.1702 19.6175 73.7806 19.4854 73.2656 19.4854C72.8145 19.4854 72.4362 19.5993 72.1309 19.8271C71.8255 20.055 71.6729 20.3307 71.6729 20.6543H70.4014C70.4014 20.2852 70.5312 19.9297 70.791 19.5879C71.0553 19.2415 71.4108 18.9681 71.8574 18.7676C72.3086 18.5671 72.8031 18.4668 73.3408 18.4668C74.193 18.4668 74.8607 18.681 75.3438 19.1094C75.8268 19.5332 76.0775 20.1188 76.0957 20.8662V24.2705C76.0957 24.9495 76.1823 25.4896 76.3555 25.8906V26H75.0293ZM72.9307 25.0361C73.3271 25.0361 73.7031 24.9336 74.0586 24.7285C74.4141 24.5234 74.6715 24.2568 74.8311 23.9287V22.4111H73.8398C72.2904 22.4111 71.5156 22.8646 71.5156 23.7715C71.5156 24.168 71.6478 24.4779 71.9121 24.7012C72.1764 24.9245 72.516 25.0361 72.9307 25.0361ZM79.2676 24.9678H83.5947V26H77.7227V25.0703L81.8037 19.6494H77.7842V18.6035H83.3896V19.499L79.2676 24.9678ZM87.9834 26.1367C86.9808 26.1367 86.165 25.8086 85.5361 25.1523C84.9072 24.4915 84.5928 23.6097 84.5928 22.5068V22.2744C84.5928 21.5407 84.7318 20.8867 85.0098 20.3125C85.2923 19.7337 85.6842 19.2826 86.1855 18.959C86.6914 18.6309 87.2383 18.4668 87.8262 18.4668C88.7878 18.4668 89.5352 18.7835 90.0684 19.417C90.6016 20.0505 90.8682 20.9574 90.8682 22.1377V22.6641H85.8574C85.8757 23.3932 86.0876 23.9834 86.4932 24.4346C86.9033 24.8812 87.4229 25.1045 88.0518 25.1045C88.4984 25.1045 88.8766 25.0133 89.1865 24.8311C89.4964 24.6488 89.7676 24.4072 90 24.1064L90.7725 24.708C90.1527 25.6605 89.223 26.1367 87.9834 26.1367ZM87.8262 19.5059C87.3158 19.5059 86.8874 19.6927 86.541 20.0664C86.1947 20.4355 85.9805 20.9551 85.8984 21.625H89.6035V21.5293C89.5671 20.8867 89.3939 20.39 89.084 20.0391C88.7741 19.6836 88.3548 19.5059 87.8262 19.5059ZM95.9131 19.7383C95.7217 19.7064 95.5143 19.6904 95.291 19.6904C94.4616 19.6904 93.8988 20.0436 93.6025 20.75V26H92.3379V18.6035H93.5684L93.5889 19.458C94.0036 18.7972 94.5915 18.4668 95.3525 18.4668C95.5986 18.4668 95.7855 18.4987 95.9131 18.5625V19.7383ZM102.072 24.9268H106.789V26H100.753V16.0469H102.072V24.9268ZM107.753 22.2334C107.753 21.5088 107.894 20.8571 108.177 20.2783C108.464 19.6995 108.86 19.2529 109.366 18.9385C109.877 18.624 110.458 18.4668 111.109 18.4668C112.117 18.4668 112.93 18.8154 113.55 19.5127C114.174 20.21 114.486 21.1374 114.486 22.2949V22.3838C114.486 23.1038 114.347 23.751 114.069 24.3252C113.796 24.8949 113.402 25.3392 112.887 25.6582C112.376 25.9772 111.788 26.1367 111.123 26.1367C110.12 26.1367 109.307 25.7881 108.683 25.0908C108.063 24.3936 107.753 23.4707 107.753 22.3223V22.2334ZM109.024 22.3838C109.024 23.2041 109.214 23.8626 109.592 24.3594C109.975 24.8561 110.485 25.1045 111.123 25.1045C111.766 25.1045 112.276 24.8538 112.654 24.3525C113.033 23.8467 113.222 23.1403 113.222 22.2334C113.222 21.4222 113.028 20.766 112.641 20.2646C112.258 19.7588 111.747 19.5059 111.109 19.5059C110.485 19.5059 109.981 19.7542 109.599 20.251C109.216 20.7477 109.024 21.4587 109.024 22.3838ZM115.771 22.2402C115.771 21.0872 116.038 20.1712 116.571 19.4922C117.104 18.8086 117.811 18.4668 118.69 18.4668C119.593 18.4668 120.297 18.7858 120.803 19.4238L120.864 18.6035H122.02V25.8223C122.02 26.7793 121.735 27.5335 121.165 28.085C120.6 28.6364 119.839 28.9121 118.882 28.9121C118.349 28.9121 117.827 28.7982 117.316 28.5703C116.806 28.3424 116.416 28.0303 116.147 27.6338L116.804 26.875C117.346 27.5449 118.009 27.8799 118.793 27.8799C119.408 27.8799 119.887 27.7067 120.229 27.3604C120.575 27.014 120.748 26.5264 120.748 25.8975V25.2617C120.242 25.8451 119.552 26.1367 118.677 26.1367C117.811 26.1367 117.109 25.7881 116.571 25.0908C116.038 24.3936 115.771 23.4434 115.771 22.2402ZM117.043 22.3838C117.043 23.2178 117.214 23.874 117.556 24.3525C117.897 24.8265 118.376 25.0635 118.991 25.0635C119.789 25.0635 120.374 24.7012 120.748 23.9766V20.5996C120.361 19.8932 119.78 19.54 119.005 19.54C118.39 19.54 117.909 19.7793 117.562 20.2578C117.216 20.7363 117.043 21.445 117.043 22.3838ZM125.308 26H124.043V18.6035H125.308V26ZM123.94 16.6416C123.94 16.4365 124.002 16.2633 124.125 16.1221C124.253 15.9808 124.439 15.9102 124.686 15.9102C124.932 15.9102 125.118 15.9808 125.246 16.1221C125.374 16.2633 125.438 16.4365 125.438 16.6416C125.438 16.8467 125.374 17.0176 125.246 17.1543C125.118 17.291 124.932 17.3594 124.686 17.3594C124.439 17.3594 124.253 17.291 124.125 17.1543C124.002 17.0176 123.94 16.8467 123.94 16.6416ZM128.534 18.6035L128.575 19.5332C129.14 18.8223 129.879 18.4668 130.79 18.4668C132.353 18.4668 133.142 19.3486 133.155 21.1123V26H131.891V21.1055C131.886 20.5723 131.763 20.1781 131.521 19.9229C131.285 19.6676 130.913 19.54 130.407 19.54C129.997 19.54 129.637 19.6494 129.327 19.8682C129.017 20.0869 128.776 20.374 128.603 20.7295V26H127.338V18.6035H128.534Z" fill="black"/>
<path fill-rule="evenodd" clip-rule="evenodd" d="M36.75 16.5C36.75 14.1528 38.6528 12.25 41 12.25C43.3472 12.25 45.25 14.1528 45.25 16.5C45.25 18.8472 43.3472 20.75 41 20.75C38.6528 20.75 36.75 18.8472 36.75 16.5ZM41 13.75C39.4812 13.75 38.25 14.9812 38.25 16.5C38.25 18.0188 39.4812 19.25 41 19.25C42.5188 19.25 43.75 18.0188 43.75 16.5C43.75 14.9812 42.5188 13.75 41 13.75Z" fill="black"/>
<path fill-rule="evenodd" clip-rule="evenodd" d="M37 23.75C35.7574 23.75 34.75 24.7574 34.75 26V27.1883C34.75 27.2064 34.7631 27.2218 34.781 27.2247C38.8997 27.8972 43.1003 27.8972 47.219 27.2247C47.2369 27.2218 47.25 27.2064 47.25 27.1883V26C47.25 24.7574 46.2426 23.75 45 23.75H44.6591C44.6328 23.75 44.6066 23.7542 44.5815 23.7623L43.716 24.045C41.9512 24.6212 40.0488 24.6212 38.284 24.045L37.4185 23.7623C37.3934 23.7542 37.3672 23.75 37.3409 23.75H37ZM33.25 26C33.25 23.9289 34.9289 22.25 37 22.25H37.3409C37.5254 22.25 37.7087 22.2792 37.8841 22.3364L38.7496 22.6191C40.2119 23.0965 41.7881 23.0965 43.2504 22.6191L44.1159 22.3364C44.2913 22.2792 44.4746 22.25 44.6591 22.25H45C47.0711 22.25 48.75 23.9289 48.75 26V27.1883C48.75 27.9415 48.2041 28.5837 47.4607 28.7051C43.1819 29.4037 38.8181 29.4037 34.5393 28.7051C33.7959 28.5837 33.25 27.9415 33.25 27.1883V26Z" fill="black"/>
<path fill-rule="evenodd" clip-rule="evenodd" d="M36.75 16.5C36.75 14.1528 38.6528 12.25 41 12.25C43.3472 12.25 45.25 14.1528 45.25 16.5C45.25 18.8472 43.3472 20.75 41 20.75C38.6528 20.75 36.75 18.8472 36.75 16.5ZM41 13.75C39.4812 13.75 38.25 14.9812 38.25 16.5C38.25 18.0188 39.4812 19.25 41 19.25C42.5188 19.25 43.75 18.0188 43.75 16.5C43.75 14.9812 42.5188 13.75 41 13.75Z" fill="black"/>
<path fill-rule="evenodd" clip-rule="evenodd" d="M37 23.75C35.7574 23.75 34.75 24.7574 34.75 26V27.1883C34.75 27.2064 34.7631 27.2218 34.781 27.2247C38.8997 27.8972 43.1003 27.8972 47.219 27.2247C47.2369 27.2218 47.25 27.2064 47.25 27.1883V26C47.25 24.7574 46.2426 23.75 45 23.75H44.6591C44.6328 23.75 44.6066 23.7542 44.5815 23.7623L43.716 24.045C41.9512 24.6212 40.0488 24.6212 38.284 24.045L37.4185 23.7623C37.3934 23.7542 37.3672 23.75 37.3409 23.75H37ZM33.25 26C33.25 23.9289 34.9289 22.25 37 22.25H37.3409C37.5254 22.25 37.7087 22.2792 37.8841 22.3364L38.7496 22.6191C40.2119 23.0965 41.7881 23.0965 43.2504 22.6191L44.1159 22.3364C44.2913 22.2792 44.4746 22.25 44.6591 22.25H45C47.0711 22.25 48.75 23.9289 48.75 26V27.1883C48.75 27.9415 48.2041 28.5837 47.4607 28.7051C43.1819 29.4037 38.8181 29.4037 34.5393 28.7051C33.7959 28.5837 33.25 27.9415 33.25 27.1883V26Z" fill="black"/>
</svg>
