<svg width="34" height="34" viewBox="0 0 34 34" fill="none" xmlns="http://www.w3.org/2000/svg">
<path fill-rule="evenodd" clip-rule="evenodd" d="M27.007 14.9486C28.349 15.987 28.349 18.013 27.007 19.0513C22.9515 22.1893 18.4229 24.6627 13.5909 26.3789L12.7081 26.6924C11.0193 27.2922 9.23538 26.1496 9.00675 24.4063C8.36795 19.5354 8.36795 14.4646 9.00675 9.59369C9.23538 7.85036 11.0193 6.70772 12.7081 7.30754L13.5909 7.62106C18.4229 9.33724 22.9515 11.8106 27.007 14.9486ZM25.7651 17.4463C26.0571 17.2204 26.0571 16.7796 25.7651 16.5537C21.8797 13.5473 17.5411 11.1776 12.9116 9.53344L12.0289 9.21992C11.5892 9.06377 11.084 9.36136 11.0189 9.85759C10.4031 14.5533 10.4031 19.4467 11.0189 24.1424C11.084 24.6386 11.5892 24.9362 12.0289 24.78L12.9116 24.4665C17.5411 22.8223 21.8797 20.4527 25.7651 17.4463Z" fill="black"/>
</svg>
