<svg width="33" height="33" viewBox="0 0 33 33" fill="none" xmlns="http://www.w3.org/2000/svg">
<path fill-rule="evenodd" clip-rule="evenodd" d="M4.68131 22.7393C4.38152 22.4284 4.31136 21.9618 4.50646 21.5765L5.49427 19.6257C7.74052 15.1897 12.2904 12.3936 17.2627 12.3936H17.8091C17.8435 11.645 17.888 10.8967 17.9425 10.1489L18.0351 8.87858C18.1099 7.85234 19.2542 7.27867 20.1212 7.8327C22.9837 9.66173 25.4721 12.0185 27.4539 14.7773L28.0765 15.644C28.3306 15.9978 28.3306 16.4743 28.0765 16.8281L27.4539 17.6948C25.4721 20.4536 22.9837 22.8104 20.1212 24.6394C19.2542 25.1934 18.1099 24.6198 18.0351 23.5935L17.9425 22.3232C17.8774 21.4308 17.8267 20.5377 17.7903 19.6441C14.8515 19.558 11.916 20.1505 9.21841 21.3956L5.83694 22.9562C5.44481 23.1372 4.9811 23.0502 4.68131 22.7393ZM7.67245 19.8739L8.36797 19.5529C11.6579 18.0345 15.2676 17.3935 18.8494 17.6686C19.3667 17.7083 19.7707 18.1318 19.786 18.6503C19.8208 19.8263 19.8809 21.0016 19.9665 22.1756L19.9751 22.2933C22.2248 20.7053 24.196 18.7515 25.8057 16.5108L26.003 16.236L25.8057 15.9613C24.196 13.7206 22.2248 11.7668 19.9751 10.1788L19.9665 10.2965C19.8901 11.3444 19.834 12.3935 19.7981 13.443C19.7794 13.9896 19.3309 14.423 18.784 14.423L17.2627 14.423C13.311 14.423 9.67458 16.5102 7.67245 19.8739Z" fill="black"/>
</svg>
