<svg width="34" height="34" viewBox="0 0 34 34" fill="none" xmlns="http://www.w3.org/2000/svg">
<path d="M9.50268 11.8084C9.21149 11.7316 8.96948 11.5294 8.84208 11.2565C8.71469 10.9837 8.71508 10.6683 8.84315 10.3958L11.09 5.61394C11.2575 5.25759 11.616 5.03028 12.0097 5.03076C12.4034 5.03125 12.7613 5.25945 12.9279 5.61621L13.9191 7.7393C13.9545 7.72537 13.9911 7.71329 14.0287 7.7032C19.9104 6.1272 25.9561 9.61767 27.5321 15.4994C29.1081 21.3811 25.6176 27.4268 19.7359 29.0027C13.8542 30.5787 7.80857 27.0883 6.23257 21.2066C5.73141 19.3362 5.74268 17.4463 6.18162 15.6892C6.31744 15.1455 6.8683 14.8149 7.412 14.9507C7.9557 15.0865 8.28635 15.6374 8.15053 16.1811C7.79295 17.6124 7.7831 19.1522 8.19283 20.6813C9.47874 25.4804 14.4116 28.3284 19.2107 27.0425C24.0098 25.7566 26.8578 20.8237 25.5718 16.0246C24.307 11.304 19.5134 8.47121 14.7895 9.60369L15.7896 11.7458C15.9561 12.1026 15.9013 12.5235 15.6488 12.8256C15.3964 13.1278 14.992 13.2566 14.6113 13.1562L9.50268 11.8084Z" fill="black"/>
</svg>
