<svg width="33" height="33" viewBox="0 0 33 33" fill="none" xmlns="http://www.w3.org/2000/svg">
<path fill-rule="evenodd" clip-rule="evenodd" d="M4.72048 8.43773C4.94482 6.5196 6.56999 5.07343 8.5012 5.07343H23.0351C23.2815 5.07343 23.5195 5.16307 23.7046 5.32563L27.4393 8.60481C28.2789 9.34202 28.7428 10.4176 28.7027 11.5342L28.2373 24.4861C28.1653 26.4876 26.5219 28.073 24.5191 28.073H8.27026C6.47139 28.073 4.9527 26.7364 4.72427 24.952C4.05255 19.7052 4.02361 14.3959 4.6381 9.14202L4.72048 8.43773ZM8.5012 7.1028C7.59959 7.1028 6.84085 7.77797 6.73611 8.67348L6.65374 9.37777C6.05843 14.4677 6.08646 19.6112 6.73722 24.6943C6.83597 25.4658 7.49255 26.0436 8.27026 26.0436H9.13219V20.2937C9.13219 18.9861 10.1922 17.9261 11.4998 17.9261H20.9702C22.2778 17.9261 23.3378 18.9861 23.3378 20.2937V26.0436H24.5191C25.4295 26.0436 26.1765 25.323 26.2092 24.4132L26.6746 11.4613C26.6928 10.9538 26.482 10.4649 26.1003 10.1298L22.6614 7.11024V10.2821C22.6614 11.5897 21.6013 12.6497 20.2938 12.6497H12.1763C10.8687 12.6497 9.80865 11.5897 9.80865 10.2821V7.1028H8.5012ZM11.838 7.1028V10.2821C11.838 10.4689 11.9895 10.6204 12.1763 10.6204H20.2938C20.4806 10.6204 20.632 10.4689 20.632 10.2821V7.1028H11.838ZM21.3084 26.0436H11.1616V20.2937C11.1616 20.1069 11.313 19.9555 11.4998 19.9555H20.9702C21.157 19.9555 21.3084 20.1069 21.3084 20.2937V26.0436Z" fill="black"/>
</svg>
