<svg width="16" height="20" viewBox="0 0 16 20" fill="none" xmlns="http://www.w3.org/2000/svg">
<path fill-rule="evenodd" clip-rule="evenodd" d="M11.9242 2.41833C9.33106 1.9836 6.66895 1.9836 4.07583 2.41833C3.58783 2.50014 3.20024 2.87507 3.10296 3.35801C2.21788 7.75199 2.16959 12.2735 2.96061 16.6854L3.12416 17.5976L6.79469 14.1106C7.47013 13.4689 8.52988 13.4689 9.20532 14.1106L12.8758 17.5976L13.0394 16.6854C13.8304 12.2735 13.7821 7.75199 12.897 3.35801C12.7998 2.87507 12.4122 2.50014 11.9242 2.41833ZM3.82782 0.938977C6.58513 0.476721 9.41488 0.476721 12.1722 0.938977C13.2714 1.12326 14.147 1.96707 14.3675 3.06181C15.2898 7.64072 15.3402 12.3525 14.5159 16.9501L14.2944 18.1854C14.1085 19.2223 12.8444 19.6367 12.0807 18.9112L8.17219 15.1981C8.0757 15.1064 7.92431 15.1064 7.82782 15.1981L3.91928 18.9112C3.15558 19.6367 1.89154 19.2223 1.70564 18.1854L1.48416 16.9501C0.65984 12.3525 0.710164 7.64073 1.63249 3.06181C1.85301 1.96707 2.7286 1.12326 3.82782 0.938977Z" fill="#B5B1B2"/>
</svg>
