<svg width="162" height="43" viewBox="0 0 162 43" fill="none" xmlns="http://www.w3.org/2000/svg">
<path d="M142 0H20C8.95431 0 0 8.9543 0 20V23C0 34.0457 8.9543 43 20 43H142C153.046 43 162 34.0457 162 23V20C162 8.95431 153.046 0 142 0Z" fill="#72C885"/>
<path d="M64.0879 21.5635C62.9622 21.2399 62.1419 20.8434 61.627 20.374C61.1165 19.9001 60.8613 19.3167 60.8613 18.624C60.8613 17.8402 61.1735 17.193 61.7979 16.6826C62.4268 16.1676 63.2425 15.9102 64.2451 15.9102C64.9287 15.9102 65.5371 16.0423 66.0703 16.3066C66.6081 16.571 67.0228 16.9355 67.3145 17.4004C67.6107 17.8652 67.7588 18.3734 67.7588 18.9248H66.4395C66.4395 18.3232 66.248 17.8516 65.8652 17.5098C65.4824 17.1634 64.9424 16.9902 64.2451 16.9902C63.598 16.9902 63.0921 17.1338 62.7275 17.4209C62.3675 17.7035 62.1875 18.0977 62.1875 18.6035C62.1875 19.0091 62.3584 19.3532 62.7002 19.6357C63.0465 19.9137 63.6322 20.1689 64.457 20.4014C65.2865 20.6338 65.9336 20.8913 66.3984 21.1738C66.8678 21.4518 67.2142 21.7777 67.4375 22.1514C67.6654 22.5251 67.7793 22.9648 67.7793 23.4707C67.7793 24.2773 67.4648 24.9245 66.8359 25.4121C66.207 25.8952 65.3662 26.1367 64.3135 26.1367C63.6299 26.1367 62.9919 26.0068 62.3994 25.7471C61.807 25.4827 61.349 25.1227 61.0254 24.667C60.7064 24.2113 60.5469 23.694 60.5469 23.1152H61.8662C61.8662 23.7168 62.0872 24.193 62.5293 24.5439C62.9759 24.8903 63.5706 25.0635 64.3135 25.0635C65.0062 25.0635 65.5371 24.9222 65.9062 24.6396C66.2754 24.3571 66.46 23.972 66.46 23.4844C66.46 22.9967 66.2891 22.6208 65.9473 22.3564C65.6055 22.0876 64.9857 21.8232 64.0879 21.5635ZM70.6436 26H69.3789V18.6035H70.6436V26ZM69.2764 16.6416C69.2764 16.4365 69.3379 16.2633 69.4609 16.1221C69.5885 15.9808 69.7754 15.9102 70.0215 15.9102C70.2676 15.9102 70.4544 15.9808 70.582 16.1221C70.7096 16.2633 70.7734 16.4365 70.7734 16.6416C70.7734 16.8467 70.7096 17.0176 70.582 17.1543C70.4544 17.291 70.2676 17.3594 70.0215 17.3594C69.7754 17.3594 69.5885 17.291 69.4609 17.1543C69.3379 17.0176 69.2764 16.8467 69.2764 16.6416ZM73.8633 18.6035L73.8975 19.4238C74.4398 18.7858 75.1712 18.4668 76.0918 18.4668C77.1263 18.4668 77.8304 18.8633 78.2041 19.6562C78.4502 19.3008 78.7692 19.0137 79.1611 18.7949C79.5576 18.5762 80.0247 18.4668 80.5625 18.4668C82.1849 18.4668 83.0098 19.3258 83.0371 21.0439V26H81.7725V21.1191C81.7725 20.5905 81.6517 20.1963 81.4102 19.9365C81.1686 19.6722 80.763 19.54 80.1934 19.54C79.724 19.54 79.3343 19.6813 79.0244 19.9639C78.7145 20.2419 78.5345 20.6178 78.4844 21.0918V26H77.2129V21.1533C77.2129 20.0778 76.6865 19.54 75.6338 19.54C74.8044 19.54 74.237 19.8932 73.9316 20.5996V26H72.667V18.6035H73.8633ZM89.5176 25.2686C89.0254 25.8473 88.3031 26.1367 87.3506 26.1367C86.5622 26.1367 85.9606 25.9089 85.5459 25.4531C85.1357 24.9928 84.9284 24.3138 84.9238 23.416V18.6035H86.1885V23.3818C86.1885 24.5029 86.6442 25.0635 87.5557 25.0635C88.5218 25.0635 89.1644 24.7035 89.4834 23.9834V18.6035H90.748V26H89.5449L89.5176 25.2686ZM94.0498 26H92.7852V15.5H94.0498V26ZM100.646 26C100.574 25.8542 100.514 25.5944 100.469 25.2207C99.8809 25.8314 99.179 26.1367 98.3633 26.1367C97.6341 26.1367 97.0348 25.9316 96.5654 25.5215C96.1006 25.1068 95.8682 24.5827 95.8682 23.9492C95.8682 23.179 96.1598 22.582 96.7432 22.1582C97.3311 21.7298 98.1559 21.5156 99.2178 21.5156H100.448V20.9346C100.448 20.4925 100.316 20.1416 100.052 19.8818C99.7874 19.6175 99.3978 19.4854 98.8828 19.4854C98.4316 19.4854 98.0534 19.5993 97.748 19.8271C97.4427 20.055 97.29 20.3307 97.29 20.6543H96.0186C96.0186 20.2852 96.1484 19.9297 96.4082 19.5879C96.6725 19.2415 97.028 18.9681 97.4746 18.7676C97.9258 18.5671 98.4202 18.4668 98.958 18.4668C99.8102 18.4668 100.478 18.681 100.961 19.1094C101.444 19.5332 101.695 20.1188 101.713 20.8662V24.2705C101.713 24.9495 101.799 25.4896 101.973 25.8906V26H100.646ZM98.5479 25.0361C98.9443 25.0361 99.3203 24.9336 99.6758 24.7285C100.031 24.5234 100.289 24.2568 100.448 23.9287V22.4111H99.457C97.9076 22.4111 97.1328 22.8646 97.1328 23.7715C97.1328 24.168 97.265 24.4779 97.5293 24.7012C97.7936 24.9245 98.1331 25.0361 98.5479 25.0361ZM103.388 22.2402C103.388 21.1055 103.657 20.194 104.194 19.5059C104.732 18.8132 105.436 18.4668 106.307 18.4668C107.173 18.4668 107.858 18.763 108.364 19.3555V15.5H109.629V26H108.467L108.405 25.207C107.899 25.8268 107.195 26.1367 106.293 26.1367C105.436 26.1367 104.737 25.7858 104.194 25.084C103.657 24.3822 103.388 23.4661 103.388 22.3359V22.2402ZM104.652 22.3838C104.652 23.2223 104.826 23.8786 105.172 24.3525C105.518 24.8265 105.997 25.0635 106.607 25.0635C107.41 25.0635 107.995 24.7035 108.364 23.9834V20.5859C107.986 19.8887 107.405 19.54 106.621 19.54C106.001 19.54 105.518 19.7793 105.172 20.2578C104.826 20.7363 104.652 21.445 104.652 22.3838ZM111.263 22.2334C111.263 21.5088 111.404 20.8571 111.687 20.2783C111.974 19.6995 112.37 19.2529 112.876 18.9385C113.386 18.624 113.967 18.4668 114.619 18.4668C115.626 18.4668 116.44 18.8154 117.06 19.5127C117.684 20.21 117.996 21.1374 117.996 22.2949V22.3838C117.996 23.1038 117.857 23.751 117.579 24.3252C117.306 24.8949 116.911 25.3392 116.396 25.6582C115.886 25.9772 115.298 26.1367 114.633 26.1367C113.63 26.1367 112.817 25.7881 112.192 25.0908C111.573 24.3936 111.263 23.4707 111.263 22.3223V22.2334ZM112.534 22.3838C112.534 23.2041 112.723 23.8626 113.102 24.3594C113.484 24.8561 113.995 25.1045 114.633 25.1045C115.275 25.1045 115.786 24.8538 116.164 24.3525C116.542 23.8467 116.731 23.1403 116.731 22.2334C116.731 21.4222 116.538 20.766 116.15 20.2646C115.768 19.7588 115.257 19.5059 114.619 19.5059C113.995 19.5059 113.491 19.7542 113.108 20.251C112.726 20.7477 112.534 21.4587 112.534 22.3838ZM123.157 19.7383C122.966 19.7064 122.758 19.6904 122.535 19.6904C121.706 19.6904 121.143 20.0436 120.847 20.75V26H119.582V18.6035H120.812L120.833 19.458C121.248 18.7972 121.836 18.4668 122.597 18.4668C122.843 18.4668 123.03 18.4987 123.157 18.5625V19.7383Z" fill="black"/>
<path fill-rule="evenodd" clip-rule="evenodd" d="M38.8083 17.4474C37.6158 17.3142 36.3841 17.3142 35.1917 17.4474C34.2937 17.5478 33.566 18.2546 33.4597 19.1637C33.317 20.3838 33.317 21.6163 33.4597 22.8363C33.566 23.7454 34.2937 24.4522 35.1917 24.5526C36.3841 24.6858 37.6158 24.6858 38.8083 24.5526C39.7063 24.4522 40.434 23.7454 40.5403 22.8363C40.683 21.6163 40.683 20.3838 40.5403 19.1637C40.434 18.2546 39.7063 17.5478 38.8083 17.4474ZM35.3583 18.9382C36.44 18.8173 37.56 18.8173 38.6417 18.9382C38.8577 18.9623 39.0266 19.1337 39.0505 19.338C39.1796 20.4422 39.1796 21.5578 39.0505 22.662C39.0266 22.8663 38.8577 23.0377 38.6417 23.0619C37.56 23.1827 36.44 23.1827 35.3583 23.0619C35.1423 23.0377 34.9734 22.8663 34.9495 22.662C34.8203 21.5578 34.8203 20.4422 34.9495 19.338C34.9734 19.1337 35.1423 18.9623 35.3583 18.9382Z" fill="black"/>
<path fill-rule="evenodd" clip-rule="evenodd" d="M40.75 12C40.75 11.5858 40.4142 11.25 40 11.25C39.5858 11.25 39.25 11.5858 39.25 12V14.5236C38.7517 14.4886 38.2512 14.4653 37.75 14.4537V13C37.75 12.5858 37.4142 12.25 37 12.25C36.5858 12.25 36.25 12.5858 36.25 13V14.4537C35.7488 14.4653 35.2483 14.4886 34.75 14.5236V12C34.75 11.5858 34.4142 11.25 34 11.25C33.5858 11.25 33.25 11.5858 33.25 12V14.672C31.9501 14.9088 30.9125 15.9359 30.6879 17.25H28C27.5858 17.25 27.25 17.5858 27.25 18C27.25 18.4142 27.5858 18.75 28 18.75H30.5374C30.5009 19.2495 30.4766 19.7496 30.4644 20.25H29C28.5858 20.25 28.25 20.5858 28.25 21C28.25 21.4142 28.5858 21.75 29 21.75H30.4644C30.4766 22.2504 30.5009 22.7505 30.5374 23.25H28C27.5858 23.25 27.25 23.5858 27.25 24C27.25 24.4142 27.5858 24.75 28 24.75H30.6879C30.9125 26.0641 31.9501 27.0912 33.25 27.328V30C33.25 30.4142 33.5858 30.75 34 30.75C34.4142 30.75 34.75 30.4142 34.75 30V27.4764C35.2483 27.5114 35.7488 27.5347 36.25 27.5463V29C36.25 29.4142 36.5858 29.75 37 29.75C37.4142 29.75 37.75 29.4142 37.75 29V27.5463C38.2512 27.5347 38.7517 27.5114 39.25 27.4764V30C39.25 30.4142 39.5858 30.75 40 30.75C40.4142 30.75 40.75 30.4142 40.75 30V27.328C42.0499 27.0912 43.0875 26.0641 43.3121 24.75H46C46.4142 24.75 46.75 24.4142 46.75 24C46.75 23.5858 46.4142 23.25 46 23.25H43.4626C43.4991 22.7505 43.5235 22.2504 43.5356 21.75H45C45.4142 21.75 45.75 21.4142 45.75 21C45.75 20.5858 45.4142 20.25 45 20.25H43.5356C43.5235 19.7496 43.4991 19.2495 43.4626 18.75H46C46.4142 18.75 46.75 18.4142 46.75 18C46.75 17.5858 46.4142 17.25 46 17.25H43.3121C43.0875 15.9359 42.0499 14.9088 40.75 14.672V12ZM33.6333 16.1309C35.8521 15.883 38.1479 15.883 40.3667 16.1309C41.1397 16.2173 41.7569 16.8279 41.8459 17.5888C42.111 19.8552 42.111 22.1448 41.8459 24.4112C41.7569 25.1721 41.1397 25.7827 40.3667 25.8691C38.1479 26.117 35.8521 26.117 33.6333 25.8691C32.8603 25.7827 32.2431 25.1721 32.1541 24.4112C31.889 22.1448 31.889 19.8552 32.1541 17.5888C32.2431 16.8279 32.8603 16.2173 33.6333 16.1309Z" fill="black"/>
</svg>
