<svg width="33" height="34" viewBox="0 0 33 34" fill="none" xmlns="http://www.w3.org/2000/svg">
<path d="M14 3.80884C13.4396 3.80884 12.9853 4.26314 12.9853 4.82354V5.83825H7.23529C6.67488 5.83825 6.22058 6.29255 6.22058 6.85296C6.22058 7.41336 6.67488 7.86766 7.23529 7.86766H26.1765C26.7369 7.86766 27.1912 7.41336 27.1912 6.85296C27.1912 6.29255 26.7369 5.83825 26.1765 5.83825H20.4265V4.82354C20.4265 4.26314 19.9722 3.80884 19.4118 3.80884H14Z" fill="black"/>
<path d="M14 15.1735C14.5604 15.1735 15.0147 15.6278 15.0147 16.1882L15.0147 25.6588C15.0147 26.2192 14.5604 26.6735 14 26.6735C13.4396 26.6735 12.9853 26.2192 12.9853 25.6588L12.9853 16.1882C12.9853 15.6278 13.4396 15.1735 14 15.1735Z" fill="black"/>
<path d="M20.4265 16.1882C20.4265 15.6278 19.9722 15.1735 19.4118 15.1735C18.8514 15.1735 18.3971 15.6278 18.3971 16.1882V25.6588C18.3971 26.2192 18.8513 26.6735 19.4118 26.6735C19.9722 26.6735 20.4265 26.2192 20.4265 25.6588V16.1882Z" fill="black"/>
<path fill-rule="evenodd" clip-rule="evenodd" d="M8.57663 11.4762C8.63372 10.9623 9.06808 10.5735 9.58513 10.5735H23.8266C24.3437 10.5735 24.778 10.9623 24.8351 11.4762L25.1059 13.9133C25.5968 18.3311 25.5968 22.7897 25.1059 27.2075L25.0792 27.4474C24.8844 29.201 23.5253 30.5993 21.7779 30.8439C18.413 31.315 14.9988 31.315 11.6338 30.8439C9.88643 30.5993 8.52734 29.201 8.33249 27.4474L8.30584 27.2075C7.81497 22.7897 7.81497 18.3311 8.30584 13.9133L8.57663 11.4762ZM10.4933 12.603L10.3228 14.1374C9.84852 18.4063 9.84852 22.7145 10.3228 26.9834L10.3495 27.2233C10.4419 28.0549 11.0865 28.7181 11.9152 28.8341C15.0935 29.2791 18.3183 29.2791 21.4966 28.8341C22.3253 28.7181 22.9698 28.0549 23.0622 27.2233L23.0889 26.9834C23.5632 22.7145 23.5632 18.4063 23.0889 14.1374L22.9184 12.603H10.4933Z" fill="black"/>
</svg>
