<svg width="33" height="34" viewBox="0 0 33 34" fill="none" xmlns="http://www.w3.org/2000/svg">
<path fill-rule="evenodd" clip-rule="evenodd" d="M27.9069 23.504C28.2067 23.1931 28.2769 22.7265 28.0818 22.3412L27.094 20.3904C24.8477 15.9544 20.2978 13.1583 15.3255 13.1583H14.7791C14.7447 12.4097 14.7003 11.6614 14.6458 10.9136L14.5531 9.64329C14.4783 8.61705 13.3341 8.04338 12.467 8.59741C9.60457 10.4264 7.11613 12.7832 5.13432 15.542L4.51171 16.4088C4.25759 16.7625 4.25759 17.239 4.51171 17.5928L5.13432 18.4595C7.11613 21.2183 9.60457 23.5751 12.467 25.4041C13.3341 25.9581 14.4783 25.3845 14.5531 24.3582L14.6458 23.0879C14.7108 22.1955 14.7615 21.3024 14.7979 20.4088C17.7368 20.3227 20.6722 20.9152 23.3698 22.1603L26.7513 23.7209C27.1434 23.9019 27.6071 23.8149 27.9069 23.504ZM24.9158 20.6387L24.2203 20.3176C20.9304 18.7992 17.3207 18.1582 13.7388 18.4333C13.2215 18.473 12.8176 18.8965 12.8022 19.4151C12.7675 20.591 12.7073 21.7663 12.6217 22.9403L12.6131 23.058C10.3635 21.47 8.3922 19.5163 6.78255 17.2755L6.5852 17.0008L6.78254 16.726C8.39219 14.4853 10.3635 12.5315 12.6131 10.9435L12.6217 11.0612C12.6981 12.1091 12.7542 13.1582 12.7902 14.2077C12.8088 14.7543 13.2574 15.1877 13.8043 15.1877L15.3255 15.1877C19.2772 15.1877 22.9136 17.2749 24.9158 20.6387Z" fill="black"/>
</svg>
