<svg width="100" height="100" viewBox="0 0 100 100" fill="none" xmlns="http://www.w3.org/2000/svg">
<path fill-rule="evenodd" clip-rule="evenodd" d="M28.125 31.25C28.125 21.47 36.0533 13.5417 45.8333 13.5417C55.6134 13.5417 63.5417 21.47 63.5417 31.25C63.5417 41.03 55.6134 48.9583 45.8333 48.9583C36.0533 48.9583 28.125 41.03 28.125 31.25ZM45.8333 19.7917C39.5051 19.7917 34.375 24.9217 34.375 31.25C34.375 37.5783 39.5051 42.7083 45.8333 42.7083C52.1616 42.7083 57.2917 37.5783 57.2917 31.25C57.2917 24.9217 52.1616 19.7917 45.8333 19.7917Z" fill="#090928"/>
<path fill-rule="evenodd" clip-rule="evenodd" d="M13.5417 70.8333C13.5417 62.2039 20.5372 55.2083 29.1667 55.2083H30.5869C31.3557 55.2083 32.1195 55.3299 32.8503 55.5685L36.4566 56.7461C42.5495 58.7356 49.1172 58.7356 55.21 56.7461L58.8164 55.5685C59.5471 55.3299 60.311 55.2083 61.0797 55.2083H62.5C71.1294 55.2083 78.125 62.2039 78.125 70.8333V75.7845C78.125 78.923 75.8505 81.599 72.753 82.1047C54.9246 85.0154 36.7421 85.0154 18.9136 82.1047C15.8162 81.599 13.5417 78.923 13.5417 75.7845V70.8333ZM29.1667 61.4583C23.989 61.4583 19.7917 65.6557 19.7917 70.8333V75.7845C19.7917 75.8599 19.8463 75.9242 19.9207 75.9363C37.0822 78.7382 54.5845 78.7382 71.746 75.9363C71.8204 75.9242 71.875 75.8599 71.875 75.7845V70.8333C71.875 65.6557 67.6777 61.4583 62.5 61.4583H61.0797C60.9699 61.4583 60.8608 61.4757 60.7564 61.5098L57.1501 62.6874C49.7966 65.0885 41.87 65.0885 34.5166 62.6874L30.9103 61.5098C30.8059 61.4757 30.6968 61.4583 30.5869 61.4583H29.1667Z" fill="#090928"/>
<path d="M81.25 26.0417C82.9759 26.0417 84.375 27.4408 84.375 29.1667V36.4583H91.6667C93.3925 36.4583 94.7917 37.8575 94.7917 39.5833C94.7917 41.3092 93.3925 42.7083 91.6667 42.7083H84.375V50C84.375 51.7259 82.9759 53.125 81.25 53.125C79.5241 53.125 78.125 51.7259 78.125 50V42.7083H70.8333C69.1074 42.7083 67.7083 41.3092 67.7083 39.5833C67.7083 37.8574 69.1074 36.4583 70.8333 36.4583H78.125V29.1667C78.125 27.4408 79.5241 26.0417 81.25 26.0417Z" fill="#090928"/>
</svg>
