<svg width="25" height="24" viewBox="0 0 25 24" fill="none" xmlns="http://www.w3.org/2000/svg">
<path fill-rule="evenodd" clip-rule="evenodd" d="M8.24536 7.5C8.24536 5.15279 10.1834 3.25 12.5741 3.25C14.9647 3.25 16.9028 5.15279 16.9028 7.5C16.9028 9.84721 14.9647 11.75 12.5741 11.75C10.1834 11.75 8.24536 9.84721 8.24536 7.5ZM12.5741 4.75C11.0272 4.75 9.77314 5.98122 9.77314 7.5C9.77314 9.01878 11.0272 10.25 12.5741 10.25C14.121 10.25 15.375 9.01878 15.375 7.5C15.375 5.98122 14.121 4.75 12.5741 4.75Z" fill="#FEFEFE"/>
<path fill-rule="evenodd" clip-rule="evenodd" d="M8.49999 14.75C7.23433 14.75 6.20832 15.7574 6.20832 17V18.1883C6.20832 18.2064 6.22168 18.2218 6.23986 18.2247C10.4349 18.8972 14.7132 18.8972 18.9083 18.2247C18.9264 18.2218 18.9398 18.2064 18.9398 18.1883V17C18.9398 15.7574 17.9138 14.75 16.6481 14.75H16.301C16.2741 14.75 16.2474 14.7542 16.2219 14.7623L15.3404 15.045C13.5429 15.6212 11.6053 15.6212 9.80775 15.045L8.92621 14.7623C8.90069 14.7542 8.87401 14.75 8.84717 14.75H8.49999ZM4.68054 17C4.68054 14.9289 6.39057 13.25 8.49999 13.25H8.84717C9.03508 13.25 9.2218 13.2792 9.40043 13.3364L10.282 13.6191C11.7713 14.0965 13.3768 14.0965 14.8661 13.6191L15.7477 13.3364C15.9263 13.2792 16.113 13.25 16.301 13.25H16.6481C18.7576 13.25 20.4676 14.9289 20.4676 17V18.1883C20.4676 18.9415 19.9116 19.5837 19.1544 19.7051C14.7964 20.4037 10.3518 20.4037 5.99369 19.7051C5.23653 19.5837 4.68054 18.9415 4.68054 18.1883V17Z" fill="#FEFEFE"/>
</svg>
