<svg width="80" height="80" viewBox="0 0 80 80" fill="none" xmlns="http://www.w3.org/2000/svg">
<path fill-rule="evenodd" clip-rule="evenodd" d="M22.5 25C22.5 17.176 28.8426 10.8333 36.6667 10.8333C44.4907 10.8333 50.8333 17.176 50.8333 25C50.8333 32.824 44.4907 39.1667 36.6667 39.1667C28.8426 39.1667 22.5 32.824 22.5 25ZM36.6667 15.8333C31.6041 15.8333 27.5 19.9374 27.5 25C27.5 30.0626 31.6041 34.1667 36.6667 34.1667C41.7293 34.1667 45.8333 30.0626 45.8333 25C45.8333 19.9374 41.7293 15.8333 36.6667 15.8333Z" fill="#003366"/>
<path fill-rule="evenodd" clip-rule="evenodd" d="M10.8333 56.6667C10.8333 49.7631 16.4298 44.1667 23.3333 44.1667H24.4696C25.0845 44.1667 25.6957 44.2639 26.2803 44.4548L29.1653 45.3969C34.0396 46.9885 39.2938 46.9885 44.1681 45.3969L47.0531 44.4548C47.6377 44.2639 48.2488 44.1667 48.8638 44.1667H50C56.9036 44.1667 62.5 49.7631 62.5 56.6667V60.6276C62.5 63.1384 60.6804 65.2792 58.2024 65.6837C43.9397 68.0123 29.3937 68.0123 15.1309 65.6837C12.653 65.2792 10.8333 63.1384 10.8333 60.6276V56.6667ZM23.3333 49.1667C19.1912 49.1667 15.8333 52.5245 15.8333 56.6667V60.6276C15.8333 60.6879 15.8771 60.7393 15.9366 60.7491C29.6658 62.9906 43.6676 62.9906 57.3968 60.7491C57.4563 60.7393 57.5 60.6879 57.5 60.6276V56.6667C57.5 52.5245 54.1422 49.1667 50 49.1667H48.8638C48.7759 49.1667 48.6886 49.1806 48.6051 49.2078L45.7201 50.1499C39.8373 52.0708 33.496 52.0708 27.6133 50.1499L24.7282 49.2078C24.6447 49.1806 24.5574 49.1667 24.4696 49.1667H23.3333Z" fill="#003366"/>
<path d="M65 20.8333C66.3807 20.8333 67.5 21.9526 67.5 23.3333V29.1667H73.3334C74.7141 29.1667 75.8334 30.2859 75.8334 31.6667C75.8334 33.0474 74.7141 34.1667 73.3334 34.1667H67.5V40C67.5 41.3807 66.3807 42.5 65 42.5C63.6193 42.5 62.5 41.3807 62.5 40V34.1667H56.6667C55.286 34.1667 54.1667 33.0474 54.1667 31.6667C54.1667 30.2859 55.286 29.1667 56.6667 29.1667H62.5V23.3333C62.5 21.9526 63.6193 20.8333 65 20.8333Z" fill="#003366"/>
</svg>
