<svg xmlns="http://www.w3.org/2000/svg" viewBox="0 0 55.7 19.63"><g id="Camada_2" data-name="Camada 2"><g id="Camada_3" data-name="Camada 3"><rect x="37.16" y="9.32" width="18.53" height="1"/><rect y="9.32" width="18.53" height="1"/><path d="M27.85,1A8.82,8.82,0,1,1,19,9.82,8.82,8.82,0,0,1,27.85,1m0-1a9.82,9.82,0,1,0,9.81,9.82A9.82,9.82,0,0,0,27.85,0Z"/><path d="M27.35,14.28a.41.41,0,0,1-.28-.09.52.52,0,0,1-.16-.22L24.23,6.25a.32.32,0,0,1,0-.13.24.24,0,0,1,.24-.24h.62a.26.26,0,0,1,.22.08.35.35,0,0,1,.1.13l2.34,6.81,2.36-6.81A.31.31,0,0,1,30.18,6a.26.26,0,0,1,.22-.08H31A.26.26,0,0,1,31.2,6a.22.22,0,0,1,.07.17.32.32,0,0,1,0,.13L28.56,14a.44.44,0,0,1-.15.22.41.41,0,0,1-.28.09Z"/></g></g></svg>